{
    "asset" : {
        "copyright" : "ItzJustSamu",
        "generator" : "Khronos glTF Blender I/O v1.8.19",
        "version" : "2.0"
    },
    "scene" : 0,
    "scenes" : [
        {
            "name" : "Scene",
            "nodes" : [
                0,
                1
            ]
        }
    ],
    "nodes" : [
        {
            "mesh" : 0,
            "name" : "Circle"
        },
        {
            "mesh" : 1,
            "name" : "Cylinder",
            "rotation" : [
                0,
                0.2164396196603775,
                0,
                0.9762960076332092
            ],
            "scale" : [
                0.800000011920929,
                0.14000000059604645,
                0.800000011920929
            ],
            "translation" : [
                0,
                0.27757149934768677,
                0
            ]
        }
    ],
    "materials" : [
        {
            "doubleSided" : true,
            "name" : "Metal",
            "pbrMetallicRoughness" : {
                "baseColorFactor" : [
                    0.23301607370376587,
                    0.23301607370376587,
                    0.23301607370376587,
                    1
                ],
                "metallicFactor" : 1,
                "roughnessFactor" : 0.4000000059604645
            }
        },
        {
            "doubleSided" : true,
            "name" : "Material",
            "pbrMetallicRoughness" : {
                "baseColorTexture" : {
                    "index" : 0
                },
                "metallicFactor" : 0,
                "roughnessFactor" : 0.5
            }
        }
    ],
    "meshes" : [
        {
            "name" : "Circle",
            "primitives" : [
                {
                    "attributes" : {
                        "POSITION" : 0,
                        "NORMAL" : 1,
                        "TEXCOORD_0" : 2
                    },
                    "indices" : 3,
                    "material" : 0
                }
            ]
        },
        {
            "name" : "Cylinder",
            "primitives" : [
                {
                    "attributes" : {
                        "POSITION" : 4,
                        "NORMAL" : 5,
                        "TEXCOORD_0" : 6
                    },
                    "indices" : 7,
                    "material" : 1
                }
            ]
        }
    ],
    "textures" : [
        {
            "sampler" : 0,
            "source" : 0
        }
    ],
    "images" : [
        {
            "mimeType" : "image/jpeg",
            "name" : "Button",
            "uri" : "Button/Button.jpg"
        }
    ],
    "accessors" : [
        {
            "bufferView" : 0,
            "componentType" : 5126,
            "count" : 10488,
            "max" : [
                0.99359530210495,
                0.2912881076335907,
                0.9935952425003052
            ],
            "min" : [
                -0.9935951828956604,
                0,
                -0.9935952425003052
            ],
            "type" : "VEC3"
        },
        {
            "bufferView" : 1,
            "componentType" : 5126,
            "count" : 10488,
            "type" : "VEC3"
        },
        {
            "bufferView" : 2,
            "componentType" : 5126,
            "count" : 10488,
            "type" : "VEC2"
        },
        {
            "bufferView" : 3,
            "componentType" : 5123,
            "count" : 16122,
            "type" : "SCALAR"
        },
        {
            "bufferView" : 4,
            "componentType" : 5126,
            "count" : 2304,
            "max" : [
                0.9918313026428223,
                0.3956853151321411,
                0.991831362247467
            ],
            "min" : [
                -0.9918313026428223,
                -0.3956853151321411,
                -0.9918313026428223
            ],
            "type" : "VEC3"
        },
        {
            "bufferView" : 5,
            "componentType" : 5126,
            "count" : 2304,
            "type" : "VEC3"
        },
        {
            "bufferView" : 6,
            "componentType" : 5126,
            "count" : 2304,
            "type" : "VEC2"
        },
        {
            "bufferView" : 7,
            "componentType" : 5123,
            "count" : 3828,
            "type" : "SCALAR"
        }
    ],
    "bufferViews" : [
        {
            "buffer" : 0,
            "byteLength" : 125856,
            "byteOffset" : 0
        },
        {
            "buffer" : 0,
            "byteLength" : 125856,
            "byteOffset" : 125856
        },
        {
            "buffer" : 0,
            "byteLength" : 83904,
            "byteOffset" : 251712
        },
        {
            "buffer" : 0,
            "byteLength" : 32244,
            "byteOffset" : 335616
        },
        {
            "buffer" : 0,
            "byteLength" : 27648,
            "byteOffset" : 367860
        },
        {
            "buffer" : 0,
            "byteLength" : 27648,
            "byteOffset" : 395508
        },
        {
            "buffer" : 0,
            "byteLength" : 18432,
            "byteOffset" : 423156
        },
        {
            "buffer" : 0,
            "byteLength" : 7656,
            "byteOffset" : 441588
        }
    ],
    "samplers" : [
        {
            "magFilter" : 9729,
            "minFilter" : 9987
        }
    ],
    "buffers" : [
        {
            "byteLength" : 449244,
            "uri" : "DontPushButton.bin"
        }
    ]
}
